<svg xmlns="http://www.w3.org/2000/svg" version="1.1" xmlns:xlink="http://www.w3.org/1999/xlink" xmlns:svgjs="http://svgjs.dev/svgjs" width="1500" height="1500" viewBox="0 0 1500 1500"><rect width="1500" height="1500" fill="#ffffff"></rect><g transform="matrix(0.6666666666666666,0,0,0.6666666666666666,249.39393939393938,490.9884644962399)"><svg viewBox="0 0 396 205" data-background-color="#ffffff" preserveAspectRatio="xMidYMid meet" height="776" width="1500" xmlns="http://www.w3.org/2000/svg" xmlns:xlink="http://www.w3.org/1999/xlink"><g id="tight-bounds" transform="matrix(1,0,0,1,0.2400000000000091,0.13665872088432707)"><svg viewBox="0 0 395.52 204.72668255823135" height="204.72668255823135" width="395.52"><g><svg viewBox="0 0 395.52 204.72668255823135" height="204.72668255823135" width="395.52"><g transform="matrix(1,0,0,1,0,123.93813428683639)"><svg viewBox="0 0 395.52 80.78854827139497" height="80.78854827139497" width="395.52"><g id="textblocktransform"><svg viewBox="0 0 395.52 80.78854827139497" height="80.78854827139497" width="395.52" id="textblock"><g><svg viewBox="0 0 395.52 52.05256178420735" height="52.05256178420735" width="395.52"><g transform="matrix(1,0,0,1,0,0)"><svg width="395.52" viewBox="-8.3 -32 248.83 32.75" height="52.05256178420735" data-palette-color="#6936f5"><g class="wordmark-text-0" data-fill-palette-color="primary" id="text-0"><path d="M12.9-19.4L12.9-19.4-8.3-21.65 13.25-21.65Q13-20.65 12.9-19.4ZM-6.9-26.45L14.6-26.45 13.85-24.25-6.9-26.45ZM-7.85-16.85L12.9-16.85Q13-15.5 13.3-14.6L13.3-14.6-7.85-16.85ZM19.9-9.8L19.9-9.8-6.55-12.05 15-12.05Q16.65-10.45 19.9-9.8ZM-3.15-31.25L18.35-31.25Q17.2-30.5 16.15-29.2L16.15-29.2-3.15-31.25ZM10.55-5.05L-7.4-7.25 11.3-7.25 10.55-5.05ZM8.95-0.2L-8.25-2.4 9.7-2.4 8.95-0.2ZM10.65-0.55L13.45-8.8Q17.65-7.65 21.13-7.65 24.6-7.65 26.8-7.95L26.8-7.95 27.2-10.45 23.05-10.85Q18.3-11.3 16.32-13 14.35-14.7 14.35-17.8L14.35-17.8Q14.35-19.15 14.65-20.8L14.65-20.8Q15.8-27.2 18.85-29.6 21.9-32 28.23-32 34.55-32 39.4-30.75L39.4-30.75 36.8-22.75Q32.45-23.5 29.83-23.5 27.2-23.5 25.3-23.25L25.3-23.25 24.9-20.8 28.25-20.45Q33.35-19.9 35.5-18.03 37.65-16.15 37.65-13L37.65-13Q37.65-9.8 36.3-6.4L36.3-6.4Q35.55-4.65 34.73-3.48 33.9-2.3 32.63-1.48 31.35-0.65 30.3-0.23 29.25 0.2 27.6 0.4L27.6 0.4Q25.3 0.75 21.9 0.75L21.9 0.75Q15.7 0.75 10.65-0.55L10.65-0.55ZM74.95 0L66.2 0 66-4.05 59.7-4.05 58.15 0 49.5 0 60.6-26.45 73-26.45 74.95 0ZM62.35-11.2L66-11.2 66-18.8 65.3-18.8 62.35-11.2ZM48.85-2.4L47.9-0.2 27.4-2.4 48.85-2.4ZM50.9-7.25L49.95-5.05 29.45-7.25 50.9-7.25ZM52.9-12.05L52-9.85 31.5-12.05 52.9-12.05ZM54.95-16.85L54-14.65 33.55-16.85 54.95-16.85ZM56.95-21.65L56.05-19.45 35.6-21.65 56.95-21.65ZM58.95-26.45L58.05-24.3 37.65-26.45 58.95-26.45ZM92.6-26.45L105.3-26.45Q112.6-26.45 112.6-19.85L112.6-19.85Q112.6-16.85 111.4-13.63 110.2-10.4 107.35-8.8L107.35-8.8 110.2 0 100.85 0 98.95-7.7 97.75-7.7 96.4 0 88 0 92.6-26.45ZM103.15-16.05L103.45-17.8Q103.45-17.85 103.5-18.3L103.5-18.3Q103.5-19.15 100.85-19.15L100.85-19.15 99.75-19.15 98.95-14.55 100.55-14.55Q102.85-14.55 103.15-16.05L103.15-16.05ZM86.75-2.4L86.35-0.15 65.15-2.4 86.75-2.4ZM88.45-12.05L88.05-9.8 66.85-12.05 88.45-12.05ZM89.3-16.85L88.9-14.6 67.7-16.85 89.3-16.85ZM90.15-21.65L89.75-19.4 68.55-21.65 90.15-21.65ZM90.95-26.45L90.6-24.2 69.4-26.45 90.95-26.45ZM87.6-7.25L87.2-5 66-7.25 87.6-7.25ZM139.29-26.95L139.29-26.95Q144.69-26.95 146.99-24.88 149.29-22.8 149.29-18.4L149.29-18.4Q149.29-16.25 148.74-13.2L148.74-13.2Q147.49-6 144.34-2.7 141.19 0.6 134.44 0.6L134.44 0.6Q129.14 0.6 126.89-1.48 124.64-3.55 124.64-7.9L124.64-7.9Q124.64-10.15 125.19-13.2L125.19-13.2Q126.44-20.4 129.54-23.68 132.64-26.95 139.29-26.95ZM132.94-7L135.89-7Q137.34-7 138.07-7.35 138.79-7.7 139.04-8.9L139.04-8.9 140.94-19.35 137.89-19.35Q136.49-19.35 135.72-19 134.94-18.65 134.79-17.5L134.79-17.5 132.94-7ZM103.49-12.05L123.44-12.05Q123.24-10.5 123.19-9.95L123.19-9.95 103.49-12.05ZM104.39-16.85L124.39-16.85 123.94-14.75 104.39-16.85ZM103.69-7.25L123.14-7.25Q123.14-6.45 123.34-5.15L123.34-5.15 103.69-7.25ZM106.39-21.65L126.14-21.65Q125.54-20.35 125.29-19.65L125.29-19.65 106.39-21.65ZM108.04-2.4L124.19-2.4Q124.79-1.2 125.49-0.55L125.49-0.55 108.04-2.4ZM113.09-26.45L130.49-26.45Q129.29-25.75 128.44-24.8L128.44-24.8 113.09-26.45ZM161.89-7.15L165.44-7.15Q167.14-7.15 167.29-8.15L167.29-8.15 169.14-18.95 165.89-18.95 167.24-26.45 178.89-26.45 175.49-7.05Q174.19 0 167.84 0L167.84 0 160.59 0 161.89-7.15ZM159.44-2.4L159.04-0.15 137.84-2.4 159.44-2.4ZM166.44-12.05L166.04-9.8 144.84-12.05 166.44-12.05ZM167.29-16.85L166.89-14.6 145.69-16.85 167.29-16.85ZM164.79-21.65L164.39-19.4 143.19-21.65 164.79-21.65ZM165.64-26.45L165.29-24.2 144.09-26.45 165.64-26.45ZM160.34-7.25L159.94-5 138.74-7.25 160.34-7.25ZM210.99 0L204.19 0 199.04-9.9 198.84-9.9 197.09 0 188.69 0 193.29-26.45 200.09-26.45 205.29-16.6 205.59-16.6 207.29-26.45 215.64-26.45 210.99 0ZM187.44-2.4L187.04-0.15 165.84-2.4 187.44-2.4ZM189.14-12.05L188.74-9.8 167.54-12.05 189.14-12.05ZM189.99-16.85L189.59-14.6 168.39-16.85 189.99-16.85ZM190.84-21.65L190.44-19.4 169.24-21.65 190.84-21.65ZM191.64-26.45L191.29-24.2 170.09-26.45 191.64-26.45ZM188.29-7.25L187.89-5 166.69-7.25 188.29-7.25ZM235.88 0L227.13 0 231.74-26.45 240.53-26.45 235.88 0ZM225.88-2.4L225.49-0.15 204.28-2.4 225.88-2.4ZM227.59-12.05L227.19-9.8 205.99-12.05 227.59-12.05ZM228.44-16.85L228.03-14.6 206.84-16.85 228.44-16.85ZM229.28-21.65L228.88-19.4 207.69-21.65 229.28-21.65ZM230.09-26.45L229.74-24.2 208.53-26.45 230.09-26.45ZM226.74-7.25L226.34-5 205.13-7.25 226.74-7.25Z" fill="#000000" data-fill-palette-color="primary"></path></g></svg></g></svg></g><g transform="matrix(1,0,0,1,75.54432,64.34092235997588)"><svg viewBox="0 0 244.43135999999998 16.4476259114191" height="16.4476259114191" width="244.43135999999998"><g transform="matrix(1,0,0,1,0,0)"><svg width="244.43135999999998" viewBox="3.25 -33 497.81 33.5" height="16.4476259114191" data-palette-color="#bb84e8"><path d="M16.25 0L3.25 0 3.25-0.8 7.25-2.8 7.25-30.2 3.25-32.2 3.25-33 27.2-33 27.2-24.4 26.4-24.4 23.3-30.25 11.75-30.25 11.75-18.4 19.75-18.4 22.25-22.55 23.05-22.55 23.05-11.6 22.25-11.6 19.75-15.65 11.75-15.65 11.75-2.8 16.25-0.8 16.25 0ZM41.65 0L32.35 0 32.35-0.8 34.9-2.1 46-28.25 48.1-28.25 59.15-2.15 62.05-0.8 62.05 0 51.15 0 51.15-0.8 54.65-2.2 51.5-9.8 41.1-9.8 37.95-2.1 41.65-0.8 41.65 0ZM46.25-22.4L42.15-12.3 50.45-12.3 46.25-22.4ZM75.65 0.5L75.65 0.5Q73 0.5 71.07-0.05 69.15-0.6 67.15-1.55L67.15-1.55 66.7-8.3 67.5-8.3 69.85-3.8Q71.3-2.7 72.82-2.27 74.35-1.85 75.95-1.85L75.95-1.85Q78.8-1.85 80.32-3.03 81.85-4.2 81.85-6.6L81.85-6.6Q81.85-8.4 80.9-9.38 79.95-10.35 78.12-11.18 76.3-12 73.65-13.25L73.65-13.25Q70.5-14.75 69.12-16.3 67.75-17.85 67.75-20.6L67.75-20.6Q67.75-22.7 69-24.5 70.25-26.3 72.27-27.43 74.3-28.55 76.75-28.55L76.75-28.55Q78.8-28.55 80.55-28.03 82.3-27.5 84-26.7L84-26.7 84.35-20.2 83.55-20.2 81.65-24.3Q80.45-25.3 79.35-25.75 78.25-26.2 76.8-26.2L76.8-26.2Q74.3-26.2 72.87-24.95 71.45-23.7 71.45-21.65L71.45-21.65Q71.45-20.3 72.1-19.4 72.75-18.5 74.12-17.73 75.5-16.95 77.7-15.9L77.7-15.9Q80.55-14.55 82.25-13.43 83.95-12.3 84.72-10.9 85.5-9.5 85.5-7.35L85.5-7.35Q85.5-5.05 84.22-3.28 82.95-1.5 80.72-0.5 78.5 0.5 75.65 0.5ZM102.99 0L91.49 0 91.49-0.8 95.04-2.45 95.04-25.55 91.49-27.2 91.49-28 102.99-28 102.99-27.2 99.29-25.55 99.29-15.75 114.24-15.75 114.24-25.55 110.54-27.2 110.54-28 121.99-28 121.99-27.2 118.49-25.55 118.49-2.45 121.99-0.8 121.99 0 110.54 0 110.54-0.8 114.24-2.45 114.24-13.25 99.29-13.25 99.29-2.45 102.99-0.8 102.99 0ZM139.69 0L128.74 0 128.74-0.8 132.04-2.45 132.04-25.55 128.74-27.2 128.74-28 139.69-28 139.69-27.2 136.29-25.55 136.29-2.45 139.69-0.8 139.69 0ZM160.94 0.5L160.94 0.5Q156.84 0.5 153.61-1.38 150.39-3.25 148.54-6.53 146.69-9.8 146.69-14L146.69-14Q146.69-18.2 148.54-21.5 150.39-24.8 153.61-26.68 156.84-28.55 160.94-28.55L160.94-28.55Q165.09-28.55 168.31-26.68 171.54-24.8 173.41-21.5 175.29-18.2 175.29-14L175.29-14Q175.29-9.8 173.41-6.53 171.54-3.25 168.31-1.38 165.09 0.5 160.94 0.5ZM161.79-2L161.79-2Q166.09-2 168.54-4.95 170.99-7.9 170.99-12.75L170.99-12.75Q170.99-16.7 169.64-19.7 168.29-22.7 165.86-24.38 163.44-26.05 160.29-26.05L160.29-26.05Q155.99-26.05 153.49-23.15 150.99-20.25 150.99-15.4L150.99-15.4Q150.99-11.4 152.36-8.38 153.74-5.35 156.16-3.68 158.59-2 161.79-2ZM192.38 0L181.78 0 181.78-0.8 185.34-2.45 185.34-25.6 181.78-27.2 181.78-28 188.78-28 205.74-7.45 205.74-25.6 201.49-27.2 201.49-28 211.99-28 211.99-27.2 208.49-25.6 208.49 0.2 206.53 0.2 188.09-22 188.09-2.6 192.38-0.8 192.38 0ZM240.63 0L230.48 0 230.48-0.8 234.03-2.45 234.98-25.55 231.13-27.2 231.13-28 240.08-28 249.58-6.8 259.48-28 267.98-28 267.98-27.2 264.28-25.8 264.98-2.45 268.18-0.8 268.18 0 257.33 0 257.33-0.8 260.63-2.4 260.18-23.3 249.23 0.2 247.93 0.2 237.48-23.3 236.98-2.4 240.63-0.8 240.63 0ZM282.13 0L272.83 0 272.83-0.8 275.38-2.1 286.48-28.25 288.58-28.25 299.63-2.15 302.53-0.8 302.53 0 291.63 0 291.63-0.8 295.13-2.2 291.98-9.8 281.58-9.8 278.43-2.1 282.13-0.8 282.13 0ZM286.73-22.4L282.63-12.3 290.93-12.3 286.73-22.4ZM319.18 0L307.43 0 307.43-0.8 311.03-2.45 311.03-25.55 307.43-27.2 307.43-28 319.48-28Q324.48-28 327.95-26.4 331.43-24.8 333.25-21.93 335.07-19.05 335.07-15.25L335.07-15.25Q335.07-10.6 333.18-7.18 331.28-3.75 327.7-1.88 324.13 0 319.18 0L319.18 0ZM318.82-25.5L318.82-25.5 315.28-25.5 315.28-2.5 319.13-2.5Q324.73-2.5 327.7-5.7 330.68-8.9 330.68-14.15L330.68-14.15Q330.68-19.7 327.63-22.6 324.57-25.5 318.82-25.5ZM364.42 0L341.82 0 341.82-0.8 345.37-2.45 345.37-25.55 341.82-27.2 341.82-28 363.17-28 363.17-20.9 362.37-20.9 359.97-25.5 349.62-25.5 349.62-15.75 357.17-15.75 358.67-19.15 359.47-19.15 359.47-9.9 358.67-9.9 357.17-13.25 349.62-13.25 349.62-2.5 361.12-2.5 363.62-7.9 364.42-7.9 364.42 0ZM409.52 0L383.67 0 383.67-0.8 387.67-2.8 387.67-30.2 383.67-32.2 383.67-33 408.12-33 408.12-24.4 407.32-24.4 404.22-30.25 392.17-30.25 392.17-18.4 400.67-18.4 403.17-22.55 403.97-22.55 403.97-11.6 403.17-11.6 400.67-15.65 392.17-15.65 392.17-2.75 405.62-2.75 408.72-9.1 409.52-9.1 409.52 0ZM423.97 0L414.67 0 414.67-0.8 417.22-2.1 428.32-28.25 430.42-28.25 441.47-2.15 444.37-0.8 444.37 0 433.47 0 433.47-0.8 436.97-2.2 433.82-9.8 423.42-9.8 420.27-2.1 423.97-0.8 423.97 0ZM428.57-22.4L424.47-12.3 432.77-12.3 428.57-22.4ZM457.96 0.5L457.96 0.5Q455.31 0.5 453.39-0.05 451.46-0.6 449.46-1.55L449.46-1.55 449.01-8.3 449.81-8.3 452.16-3.8Q453.61-2.7 455.14-2.27 456.66-1.85 458.26-1.85L458.26-1.85Q461.11-1.85 462.64-3.03 464.16-4.2 464.16-6.6L464.16-6.6Q464.16-8.4 463.21-9.38 462.26-10.35 460.44-11.18 458.61-12 455.96-13.25L455.96-13.25Q452.81-14.75 451.44-16.3 450.06-17.85 450.06-20.6L450.06-20.6Q450.06-22.7 451.31-24.5 452.56-26.3 454.59-27.43 456.61-28.55 459.06-28.55L459.06-28.55Q461.11-28.55 462.86-28.03 464.61-27.5 466.31-26.7L466.31-26.7 466.66-20.2 465.86-20.2 463.96-24.3Q462.76-25.3 461.66-25.75 460.56-26.2 459.11-26.2L459.11-26.2Q456.61-26.2 455.19-24.95 453.76-23.7 453.76-21.65L453.76-21.65Q453.76-20.3 454.41-19.4 455.06-18.5 456.44-17.73 457.81-16.95 460.01-15.9L460.01-15.9Q462.86-14.55 464.56-13.43 466.26-12.3 467.04-10.9 467.81-9.5 467.81-7.35L467.81-7.35Q467.81-5.05 466.54-3.28 465.26-1.5 463.04-0.5 460.81 0.5 457.96 0.5ZM492.86 0L480.81 0 480.81-0.8 484.71-2.45 484.71-13.35 475.56-25.7 472.31-27.2 472.31-28 483.56-28 483.56-27.2 480.56-25.7 480.56-25.5 487.81-15.85 494.41-25.45 494.41-25.6 491.26-27.2 491.26-28 501.06-28 501.06-27.2 497.76-25.65 488.96-13.15 488.96-2.45 492.86-0.8 492.86 0Z" opacity="1" transform="matrix(1,0,0,1,0,0)" fill="#000000" class="slogan-text-1" data-fill-palette-color="secondary" id="text-1"></path></svg></g></svg></g></svg></g></svg></g><g transform="matrix(1,0,0,1,156.28992455049806,0)"><svg viewBox="0 0 82.94015089900387 111.64977371106785" height="111.64977371106785" width="82.94015089900387"><g><svg xmlns="http://www.w3.org/2000/svg" xmlns:xlink="http://www.w3.org/1999/xlink" version="1.1" x="0" y="0" viewBox="14.358 142.499 74.286 100" enable-background="new 14.358 142.499 74.286 100" xml:space="preserve" width="82.94015089900387" height="111.64977371106785" class="icon-icon-0" data-fill-palette-color="accent" id="icon-0"><path d="M88.644 177.856v48.929c0 3.69-14.643 15.714-14.643 15.714H29.239c0 0-14.881-12.023-14.881-15.714v-48.929c0-1.19 0.953-2.024 2.024-2.024h12.976v-5.237c0-12.144 10-28.096 22.143-28.096 12.262 0 22.143 15.952 22.143 28.096v5.237H86.62C87.691 175.832 88.644 176.666 88.644 177.856zM18.644 180.118v46.667h10.714v-46.667H18.644zM39.12 175.832h24.762v-13.571c0-7.5-4.881-13.571-12.381-13.571s-12.381 6.071-12.381 13.571V175.832zM63.882 226.785v-46.667H39.12v46.667H63.882zM73.644 180.118v46.667h10.715v-46.667H73.644z" fill="#000000" data-fill-palette-color="accent"></path></svg></g></svg></g><g></g></svg></g><defs></defs></svg><rect width="395.52" height="204.72668255823135" fill="none" stroke="none" visibility="hidden"></rect></g></svg></g></svg>